<?xml version="1.0" encoding="UTF-8" standalone="no"?>
<!-- Created with Inkscape (http://www.inkscape.org/) -->
<svg xmlns:svg="http://www.w3.org/2000/svg" xmlns="http://www.w3.org/2000/svg" version="1.1" width="228.5" height="84.7" viewBox="0 0 229 85" id="svg2">
  <title id="title3881">Logo verbraucherzentrale Bundesverband</title>
  <defs id="defs4">
    <clipPath id="clipPath2943">
      <path d="m 0,0 297.6,0 0,595.3 L 0,595.3 0,0 z" id="path2945"/>
    </clipPath>
    <clipPath id="clipPath2927">
      <path d="m 0,0 297.6,0 0,595.3 L 0,595.3 0,0 z" id="path2929"/>
    </clipPath>
    <clipPath id="clipPath2911">
      <path d="m 0,0 297.6,0 0,595.3 L 0,595.3 0,0 z" id="path2913"/>
    </clipPath>
    <clipPath id="clipPath2895">
      <path d="m 47.52,251.5 259.18,0 0,-262.05 -259.18,0 0,262.05 z" id="path2897"/>
    </clipPath>
    <clipPath id="clipPath2875">
      <path d="m 45.72,253.3 263.18,0 0,-266.01 -263.18,0 0,266.01 z" id="path2877"/>
    </clipPath>
    <clipPath id="clipPath2867">
      <path d="m 0,0 297.6,0 0,595.3 L 0,595.3 0,0 z" id="path2869"/>
    </clipPath>
    <clipPath id="clipPath2853">
      <path d="m 0,0 297.6,0 0,595.3 L 0,595.3 0,0 z" id="path2855"/>
    </clipPath>
  </defs>
  <g transform="translate(-234.9,-599.6)" id="layer1">
    <path d="m 234.9,640 228.5,0 0,-40.4 -228.5,0 0,40.4 z" id="path2921" style="fill:#ef2d38;fill-opacity:1;fill-rule:nonzero;stroke:none"/>
    <g transform="matrix(1.25,0,0,-1.25,164,904.4)" id="g2923">
      <g clip-path="url(#clipPath2927)" id="g2925">
        <g transform="translate(70.64,232.6)" id="g2931">
          <path d="m 0,0 -2.974,0 -1.879,-8.638 -0.08,0 -1.89,8.638 -2.963,0 3.643,-13.52 2.496,0 L 0,0 z m 9.314,-7.769 0,3.735 c 0,2.331 -1.614,4.17 -4.195,4.17 -1.731,0 -3.058,-0.741 -3.717,-1.918 C 1.03,-2.492 0.881,-3.428 0.881,-4.525 l 0,-4.467 c 0,-1.078 0.149,-2.038 0.521,-2.738 0.659,-1.18 1.986,-1.94 3.717,-1.94 1.275,0 2.315,0.44 3.058,1.22 0.691,0.72 1.137,1.74 1.137,2.864 l -2.836,0 c -0.08,-0.574 -0.307,-1.374 -1.359,-1.374 -0.882,0 -1.402,0.47 -1.402,1.328 l 0,1.863 5.597,0 z m -5.597,3.667 c 0,1.005 0.52,1.543 1.402,1.543 0.849,0 1.359,-0.538 1.359,-1.543 l 0,-1.532 -2.761,0 0,1.532 z m 7.553,-9.418 2.79,0 0,8.024 c 0,2.217 1.68,2.937 2.89,2.937 0.32,0 0.56,-0.05 0.86,-0.161 l 0,2.856 c -1.63,0 -2.57,-0.605 -3.75,-1.564 l 0,1.428 -2.79,0 0,-13.52 z m 7.54,0 2.83,0 0,1.24 c 0.7,-0.79 1.25,-1.39 2.65,-1.39 1.14,0 1.95,0.39 2.47,1.28 0.32,0.58 0.47,1.39 0.47,2.891 l 0,5.187 c 0,1.954 -0.11,2.696 -0.45,3.279 -0.46,0.708 -1.16,1.199 -2.52,1.199 -1.12,0 -1.96,-0.491 -2.58,-1.381 l 0,0 0,6.706 -2.83,0 0,-19.011 z m 5.59,4.409 c 0,-1.099 -0.41,-1.849 -1.37,-1.849 -0.89,0 -1.39,0.72 -1.39,1.713 l 0,5.243 c 0,0.858 0.58,1.475 1.39,1.475 1.08,0 1.37,-0.766 1.37,-1.612 l 0,-4.97 z m 5.19,-4.379 2.79,0 0,8.024 c 0,2.217 1.69,2.937 2.92,2.937 0.29,0 0.53,-0.05 0.83,-0.161 l 0,2.856 c -1.61,0 -2.56,-0.605 -3.75,-1.564 l 0,1.428 -2.79,0 0,-13.52 z m 12.77,0 2.84,0 0,9.418 c 0,2.811 -1.87,4.238 -4.26,4.238 -1.26,0 -2.29,-0.422 -3.08,-1.129 -0.72,-0.71 -1.16,-1.727 -1.24,-2.926 l 2.73,0 c 0.18,0.892 0.88,1.36 1.59,1.36 1.05,0 1.42,-0.686 1.42,-1.612 l 0,-1.394 c -0.59,0.04 -0.96,0.07 -1.36,0.07 -3.54,0 -4.47,-1.497 -4.47,-4.575 0,-2.99 1.78,-3.6 3.06,-3.6 1.35,0 1.99,0.57 2.69,1.54 l 0.1,0 0,-1.39 z m 0,3.991 c 0,-1.111 -0.59,-1.751 -1.51,-1.751 -0.92,0 -1.48,0.68 -1.48,1.751 0,1.428 1.01,1.897 2.21,1.897 0.24,0 0.47,0 0.78,-0.07 l 0,-1.828 z M 55.89,0 l -2.84,0 0,-9.061 c 0,-1.249 -0.31,-1.899 -1.37,-1.899 -0.89,0 -1.37,0.61 -1.37,1.614 l 0,9.346 -2.83,0 0,-10.35 c 0,-2.42 1.51,-3.32 2.9,-3.32 1.3,0 2.04,0.61 2.65,1.48 l 0,0 0,-1.33 2.84,0 0,13.52 z m 5.08,-4.102 c 0,1.005 0.52,1.543 1.36,1.543 0.85,0 1.41,-0.514 1.41,-1.612 l 2.83,0 c 0,2.525 -1.62,4.307 -4.24,4.307 -1.69,0 -3.01,-0.741 -3.66,-1.918 -0.38,-0.71 -0.55,-1.646 -0.55,-2.743 l 0,-4.467 c 0,-1.078 0.17,-2.038 0.55,-2.738 0.65,-1.18 1.97,-1.94 3.66,-1.94 1.32,0 2.36,0.44 3.09,1.22 0.7,0.72 1.15,1.74 1.15,2.864 l -2.83,0 c -0.1,-0.574 -0.32,-1.374 -1.41,-1.374 -0.84,0 -1.36,0.47 -1.36,1.328 l 0,5.53 z m 7.01,-9.448 2.83,0 0,9.094 c 0,1.211 0.32,1.897 1.38,1.897 0.89,0 1.36,-0.617 1.36,-1.612 l 0,-9.379 2.84,0 0,10.374 c 0,2.433 -1.51,3.312 -2.9,3.312 -1.3,0 -2.07,-0.605 -2.65,-1.462 l 0,0 0,6.787 -2.83,0 0,-19.011 z m 18.84,5.781 0,3.735 c 0,2.331 -1.64,4.17 -4.2,4.17 -1.74,0 -3.07,-0.741 -3.72,-1.918 -0.38,-0.71 -0.52,-1.646 -0.52,-2.743 l 0,-4.467 c 0,-1.078 0.14,-2.038 0.52,-2.738 0.65,-1.18 1.98,-1.94 3.72,-1.94 1.28,0 2.3,0.44 3.05,1.22 0.7,0.72 1.15,1.74 1.15,2.864 l -2.85,0 c -0.1,-0.574 -0.29,-1.374 -1.35,-1.374 -0.89,0 -1.41,0.47 -1.41,1.328 l 0,1.863 5.61,0 z m -5.61,3.667 c 0,1.005 0.52,1.543 1.41,1.543 0.84,0 1.35,-0.538 1.35,-1.543 l 0,-1.532 -2.76,0 0,1.532 z m 7.55,-9.418 2.78,0 0,8.024 c 0,2.217 1.7,2.937 2.93,2.937 0.29,0 0.55,-0.05 0.83,-0.161 l 0,2.856 c -1.61,0 -2.55,-0.605 -3.76,-1.564 l 0,1.428 -2.78,0 0,-13.52 z m 6.98,0 7.86,0 0,2.56 -4.61,0 4.61,8.823 0,2.137 -7.48,0 0,-2.388 4.18,0 -4.56,-8.962 0,-2.17 z m 17.46,5.751 0,3.735 c 0,2.331 -1.6,4.17 -4.2,4.17 -1.7,0 -3,-0.741 -3.7,-1.918 -0.4,-0.71 -0.5,-1.646 -0.5,-2.743 l 0,-4.467 c 0,-1.078 0.1,-2.038 0.5,-2.738 0.7,-1.18 2,-1.94 3.7,-1.94 1.3,0 2.4,0.44 3.1,1.22 0.7,0.72 1.1,1.74 1.1,2.864 l -2.8,0 c -0.1,-0.574 -0.3,-1.374 -1.4,-1.374 -0.8,0 -1.4,0.47 -1.4,1.328 l 0,1.863 5.6,0 z m -5.6,3.667 c 0,1.005 0.6,1.543 1.4,1.543 0.9,0 1.4,-0.538 1.4,-1.543 l 0,-1.532 -2.8,0 0,1.532 z m 7.6,-9.418 2.8,0 0,9.064 c 0,1.244 0.4,1.897 1.4,1.897 0.9,0 1.4,-0.617 1.4,-1.612 l 0,-9.349 2.8,0 0,10.389 c 0,2.388 -1.5,3.267 -2.9,3.267 -1.3,0 -2.1,-0.605 -2.6,-1.462 l -0.1,0 0,1.326 -2.8,0 0,-13.52 z m 11.5,13.497 -1.5,0 0,-2.148 1.5,0 0,-8.219 c 0,-1.43 0.8,-3.16 3.4,-3.16 l 1.1,0 0,2.56 c -1.2,0 -1.7,0.11 -1.7,1.324 l 0,7.495 1.7,0 0,2.148 -1.7,0 0,4.09 -2.8,0 0,-4.09 z m 6.2,-13.497 2.8,0 0,8.024 c 0,2.217 1.7,2.937 2.9,2.937 0.3,0 0.6,-0.05 0.9,-0.161 l 0,2.856 c -1.7,0 -2.6,-0.605 -3.8,-1.564 l 0,1.428 -2.8,0 0,-13.52 z m 12.8,0 2.8,0 0,9.418 c 0,2.811 -1.8,4.238 -4.2,4.238 -1.3,0 -2.3,-0.422 -3.1,-1.129 -0.7,-0.71 -1.2,-1.727 -1.2,-2.926 l 2.7,0 c 0.2,0.892 0.9,1.36 1.6,1.36 1,0 1.4,-0.686 1.4,-1.612 l 0,-1.394 c -0.6,0.04 -1,0.07 -1.4,0.07 -3.5,0 -4.4,-1.497 -4.4,-4.575 0,-2.99 1.8,-3.6 3,-3.6 1.4,0 2,0.57 2.7,1.54 l 0.1,0 0,-1.39 z m 0,3.991 c 0,-1.111 -0.6,-1.751 -1.5,-1.751 -0.9,0 -1.5,0.68 -1.5,1.751 0,1.428 1,1.897 2.2,1.897 0.3,0 0.5,0 0.8,-0.07 l 0,-1.828 z m 4.9,-0.389 c 0,-3.142 1.6,-3.782 4.2,-3.782 l 0,2.58 c -1,0.1 -1.3,0.38 -1.3,1.385 l 0,15.196 -2.9,0 0,-15.379 z m 13.6,2.149 0,3.735 c 0,2.331 -1.6,4.17 -4.2,4.17 -1.7,0 -3,-0.741 -3.7,-1.918 -0.4,-0.71 -0.5,-1.646 -0.5,-2.743 l 0,-4.467 c 0,-1.078 0.1,-2.038 0.5,-2.738 0.7,-1.18 2,-1.94 3.7,-1.94 1.3,0 2.3,0.44 3.1,1.22 0.7,0.72 1.1,1.74 1.1,2.864 l -2.8,0 c -0.1,-0.574 -0.3,-1.374 -1.4,-1.374 -0.9,0 -1.4,0.47 -1.4,1.328 l 0,1.863 5.6,0 z m -5.6,3.667 c 0,1.005 0.5,1.543 1.4,1.543 0.9,0 1.4,-0.538 1.4,-1.543 l 0,-1.532 -2.8,0 0,1.532 z" id="path2933" style="fill:#ffffff;fill-opacity:1;fill-rule:nonzero;stroke:none"/>
        </g>
      </g>
    </g>
    <path d="m 234.9,680.4 228.5,0 0,-40.4 -228.5,0 0,40.4 z" id="path2935" style="fill:#ffffff;fill-opacity:1;fill-rule:nonzero;stroke:none"/>
    <path d="m 234.9,684.3 228.5,0 0,-4 -228.5,0 0,4 z" id="path2937" style="fill:#ef2d38;fill-opacity:1;fill-rule:nonzero;stroke:none"/>
    <g transform="matrix(1.25,0,0,-1.25,164,904.4)" id="g2939">
      <g clip-path="url(#clipPath2943)" id="g2941">
        <g transform="translate(213.5,190.7)" id="g2947">
          <path d="M 0,0 C 0.217,0.563 0.39,1.451 0.39,2.47 0.39,2.721 0.251,2.99 0,2.99 -0.78,2.99 -3.769,-0.888 -3.683,-3.206 -2.021,-2.052 -0.822,-1.026 0,0 m -5.48,-4.333 c -0.571,0 -0.823,0.643 -0.823,1.213 0,0.641 1.061,3.683 2.659,5.303 0.441,0.446 0.995,0.852 1.434,1.067 1.309,0.636 2.47,1.061 3.163,1.061 0.888,0 1.261,-0.325 1.261,-1.053 0,-0.56 -0.08,-1.044 -0.243,-1.568 1.714,1.727 2.843,2.897 4.051,4.743 1.231,1.881 1.559,2.556 2.847,4.447 0.124,0.19 0.2,0.34 0.416,0.38 0.463,0.1 1.065,0.35 1.495,0.35 0.21,0 0.34,-0.2 0.34,-0.41 0,-0.35 -6.745,-12.868 -6.679,-14.601 0.02,-0.499 0.858,-0.239 0.858,-0.655 0,-0.45 -1.984,-0.797 -2.53,-0.797 -0.733,0 -1.014,0.101 -1.014,0.802 0,1.278 1.806,4.467 3.201,7.46 -2.695,-2.993 -4.385,-4.813 -7.382,-7.07 -0.962,-0.724 -2.5,-0.672 -3.054,-0.672" id="path2949" style="fill:#231f20;fill-opacity:1;fill-rule:nonzero;stroke:none"/>
        </g>
        <g transform="translate(183.2,188.3)" id="g2951">
          <path d="M 0,0 C 0.672,0.217 5.22,4.614 5.22,5.914 5.22,6.033 5.145,6.217 5.025,6.217 3.444,6.217 1.147,2.643 0,0 m -1.798,-1.841 c -0.377,0 -0.693,0.295 -0.693,0.671 0,1.192 2.664,6.976 6.13,8.037 0.788,0.241 1.711,0.499 2.578,0.499 0.931,0 0.974,-0.412 0.844,-0.845 0.607,0.303 0.932,0.498 1.43,0.498 0.216,0 0.282,-0.153 0.282,-0.368 C 8.773,5.524 6.585,1.82 6,-0.628 c 2.47,1.971 3.704,3.748 6.41,6.109 0.17,0.142 0.29,0.181 0.48,0.281 0.33,0.17 1.54,0.672 2.08,0.672 0.69,0 0.71,-0.173 0.71,-0.585 0,-1.495 -1.71,-3.444 -2.47,-6.239 2.76,2.058 4.34,3.791 6.87,6.196 0.2,0.19 0.36,0.245 0.61,0.368 0.67,0.329 1.51,0.412 1.86,0.412 0.18,0 0.24,-0.212 0.24,-0.39 0,-0.434 -0.69,-1.842 -1.34,-3.206 -0.57,-1.192 -1.17,-3.358 0.41,-3.358 0.23,0 0.34,0.086 0.58,0.086 0.16,0 0.33,-0.097 0.33,-0.26 0,-0.26 -0.26,-0.258 -0.44,-0.39 -0.28,-0.216 -2.36,-0.498 -2.81,-0.498 -0.93,0 -1.3,0.78 -1.3,1.885 0,1.083 0.56,2.21 1.02,3.228 -1.74,-1.928 -3.8,-3.793 -5.4,-4.766 -0.24,-0.148 -0.37,-0.247 -0.63,-0.368 -0.59,-0.283 -1.49,-0.39 -2.03,-0.39 -0.59,0 -0.57,0.281 -0.57,0.909 0,0.889 0.89,2.925 2.28,5.503 C 10.55,2.296 9.488,1.04 6.867,-1.17 6.628,-1.37 6.391,-1.496 6.065,-1.668 5.301,-2.074 4.288,-2.383 3.964,-2.383 c -0.477,0 -0.585,0.347 -0.585,1.04 0,1.04 1.126,3.163 2.209,5.221 C 3.79,2.058 2.707,1.018 0.758,-0.65 0.477,-0.891 0.311,-1.03 -0.022,-1.192 -0.693,-1.517 -1.386,-1.841 -1.798,-1.841" id="path2953" style="fill:#231f20;fill-opacity:1;fill-rule:nonzero;stroke:none"/>
        </g>
        <g transform="translate(179,195.2)" id="g2955">
          <path d="m 0,0 c -3.163,-0.26 -6.866,-6.456 -6.866,-6.694 0,-0.628 0.246,-1.018 0.736,-1.018 1.863,0 5.653,4.549 6.13,7.712 m -9.683,-8.167 c -0.437,0 -0.347,0.39 -0.347,0.606 0,0.362 2.575,5.661 3.857,8.536 1.484,3.327 1.906,4.288 3.378,7.365 0.07,0.15 0.148,0.244 0.304,0.303 0.52,0.195 1.039,0.347 1.559,0.347 0.184,0 0.26,-0.207 0.26,-0.39 0,-0.434 -2.708,-6.846 -4.331,-10.138 1.927,1.43 3.617,2.686 6.021,2.686 1.192,0 1.473,-0.52 1.473,-1.343 0,-2.293 -2.902,-6.06 -6.504,-7.896 -1.299,-0.662 -3.308,-1.073 -4.067,-1.073 -0.554,0 -1.04,0.174 -0.866,1.127 -0.174,-0.152 -0.433,-0.13 -0.737,-0.13" id="path2957" style="fill:#231f20;fill-opacity:1;fill-rule:nonzero;stroke:none"/>
        </g>
        <g transform="translate(116.2,187.5)" id="g2959">
          <path d="M 0,0 C 0.065,0.043 3.942,2.426 4.267,5.568 4.292,5.803 4.18,6.282 3.877,6.174 1.355,5.273 0.043,1.582 -0.173,0.542 -0.218,0.325 -0.325,0.043 0,0 m -1.736,-1.634 c -0.587,0.04 -0.953,0.563 -0.953,1.17 0,4.271 5.588,8.101 7.365,8.101 1.798,0 1.408,-1.06 1.061,-1.775 1.452,1.321 3.033,3.92 4.853,6.538 0.12,0.17 0.22,0.25 0.39,0.36 0.49,0.3 1.33,0.61 1.54,0.61 0.31,0 0.3,-0.17 0.3,-0.51 C 12.82,11.43 8.575,4.757 8.575,1.464 8.575,1.063 8.404,0.237 8.903,0.39 9.08,0.444 9.159,0.211 9.165,0.134 9.174,-0.013 9.088,-0.174 8.857,-0.291 8.231,-0.607 6.975,-0.771 6.764,-0.771 6.217,-0.771 6,-0.542 6,0.325 6,2.751 7.146,5.145 7.906,6.629 4.808,2.881 1.167,-1.829 -1.736,-1.634" id="path2961" style="fill:#231f20;fill-opacity:1;fill-rule:nonzero;stroke:none"/>
        </g>
        <g transform="translate(130.8,191.5)" id="g2963">
          <path d="M 0,0 C 1.452,0.531 2.632,1.874 2.632,2.351 2.632,2.543 2.643,2.86 2.448,2.86 2.036,2.86 0.65,1.473 0,0 m -3.38,-3.076 c 0,3.163 4.355,7.517 6.868,7.517 1.126,0 1.473,-0.579 1.473,-1.018 0,-2.296 -4.105,-3.965 -5.362,-4.441 -0.26,-0.574 -0.466,-1.029 -0.466,-1.452 0,-0.476 0.022,-0.974 0.629,-0.974 1.018,0 5.242,2.036 7.127,5.459 0.02,0.325 0,0.709 0.108,1.061 0.234,0.702 1.539,1.3 2.578,1.625 0.09,0.03 0.402,-0.16 0.39,-0.368 C 9.944,3.965 9.503,3.833 9.445,3.163 9.229,0.65 9.922,-2.881 10.12,-4.094 10.17,-4.441 9.9,-4.614 9.727,-4.701 8.745,-5.191 8.276,-5.568 7.517,-5.568 c -0.52,0 -1.709,0.541 -2.903,1.084 -0.476,0.216 1.149,1.006 1.409,0.996 0.563,-0.02 0.995,-0.346 1.624,-0.541 -0.281,0.844 -0.583,3.747 -0.65,4.246 -1.928,-1.993 -5.784,-5.135 -9.315,-5.135 -0.632,0 -1.062,0.954 -1.062,1.842" id="path2965" style="fill:#231f20;fill-opacity:1;fill-rule:nonzero;stroke:none"/>
        </g>
        <g transform="translate(72.73,198.7)" id="g2967">
          <path d="m 0,0 c -0.762,-0.271 -0.65,0.152 -0.65,0.78 0,0.325 0.498,1.139 1.127,1.603 2.902,2.145 6.888,3.076 11.263,3.076 1.7,0 3.94,-0.216 3.94,-1.863 0,-1.646 -2.73,-3.358 -4.52,-4.549 3.59,-1.927 4.78,-4.029 4.78,-5.589 0,-1.586 -0.3,-2.621 -1.3,-3.858 -1.06,-0.93 -2.23,-1.77 -3.68,-2.51 -0.76,-0.25 -1.232,-0.3 -2.035,-0.3 -1.625,0 -3.596,0.34 -3.835,1.4 -0.129,0.58 -0.173,0.89 -0.108,1.5 0.26,1.082 2.297,1.472 2.362,0.67 0.03,-0.37 -0.102,-0.69 0.04,-1.08 0.26,-0.72 2.015,-0.74 2.966,-0.74 0.42,0 0.72,0 1.02,0.15 0.58,0.26 1.18,0.66 1.58,1.06 0.57,0.567 0.65,1.825 0.65,2.712 0,3.379 -5.285,5.026 -5.285,5.805 0,0.476 2.565,1.904 4.165,3.163 0.6,0.476 1.12,0.839 1.12,1.603 0,1.256 -2.2,1.17 -3.725,1.17 C 6.52,4.203 2.276,2.48 1.559,1.69 0.932,0.997 1.278,0.455 0,0" id="path2969" style="fill:#231f20;fill-opacity:1;fill-rule:nonzero;stroke:none"/>
        </g>
        <g transform="translate(80.91,199.3)" id="g2971">
          <path d="m 0,0 c 0.176,0 0.202,-0.273 0.13,-0.433 -2.054,-4.38 -3.671,-8.121 -4.853,-11.217 -0.248,-0.59 -1.067,-0.88 -1.5,-0.88 -0.39,0 -0.373,0.22 -0.146,0.96 0.455,1.5 2.101,7.086 4.376,10.357 C -1.452,-0.434 -0.65,0 0,0" id="path2973" style="fill:#231f20;fill-opacity:1;fill-rule:nonzero;stroke:none"/>
        </g>
        <g transform="translate(94.34,196.4)" id="g2975">
          <path d="m 0,0 c 0.431,0 0.306,-0.53 0.13,-0.953 -0.953,-2.297 -1.538,-3.553 -2.6,-5.806 -0.09,-0.191 -0.238,-0.585 -0.216,-0.91 2.318,1.885 4.874,4.376 6.152,5.979 0.1,0.12 0.34,0.344 0.477,0.412 0.931,0.455 1.376,0.758 1.798,0.758 0.39,0 0.364,-0.353 0.26,-0.563 -1.495,-3.033 -2.881,-5.199 -2.838,-7.929 2.036,0.888 4.268,4.008 6.607,6.542 0.12,0.13 0.67,0.645 0.85,0.759 1.22,0.789 1.56,0.844 2.03,0.844 0.39,0 0.56,-0.278 0.39,-0.649 -0.74,-1.606 -3.299,-5.508 -3.161,-6.976 1.151,0.325 4.421,3.683 6.751,6.204 0.31,0.331 1.58,1.066 2.3,1.162 0.46,0.06 0.39,-0.439 0.31,-0.737 -0.69,-2.388 -1.65,-3.475 -1.91,-6.109 0,-0.309 0,-1.056 0.35,-1.387 0.16,-0.144 0.28,-0.05 0.44,-0.05 0.31,0 0.32,-0.43 0,-0.509 -0.39,-0.112 -1.71,-0.392 -2.16,-0.392 -0.93,0 -1.13,0.479 -1.13,1.172 0,1.042 0.15,2.588 0.52,3.813 -2.37,-2.015 -3.43,-3.393 -5.24,-4.268 -0.673,-0.325 -1.908,-0.677 -2.168,-0.677 -0.585,0 -0.736,0.33 -0.736,0.98 0,0.694 0.736,2.557 1.473,4.03 C 6.997,-7.366 5.678,-8.822 3.986,-9.684 2.993,-10.19 1.603,-10.66 1.3,-10.66 c -0.585,0 -0.78,0.838 -0.78,1.496 0,0.953 0.303,2.08 0.91,3.531 -1.495,-1.581 -3.73,-3.174 -4.376,-3.466 -0.828,-0.373 -1.82,-0.736 -2.21,-0.736 -0.326,0 -0.303,0.497 -0.303,0.823 0,1.213 1.972,4.571 3.228,7.604 0.08,0.19 0.24,0.401 0.411,0.52 C -1.189,-0.452 -0.282,0 0,0" id="path2977" style="fill:#231f20;fill-opacity:1;fill-rule:nonzero;stroke:none"/>
        </g>
        <g transform="translate(144.2,194.6)" id="g2979">
          <path d="M 0,0 C -0.153,0.643 1.77,1.237 2.123,1.343 2.773,1.538 2.86,1.278 2.86,0.52 2.86,-1.085 2.015,-3.445 1.906,-4.571 1.868,-4.981 6.802,0.953 7.495,1.213 7.663,1.275 8.989,1.733 9.769,1.82 9.907,1.834 10.15,1.603 10.03,1.538 8.794,0.867 3.705,-5.373 1.105,-7.972 c -0.217,-0.217 -1.733,-0.78 -2.015,-0.78 -0.279,0 -0.585,0.04 -0.585,0.411 0,1.475 1.712,7.431 1.495,8.341" id="path2981" style="fill:#231f20;fill-opacity:1;fill-rule:nonzero;stroke:none"/>
        </g>
        <g transform="translate(151.5,188.4)" id="g2983">
          <path d="m 0,0 c 0,3.913 5.578,7.431 8.016,7.431 0.702,0 1.473,-0.16 1.473,-0.845 0,-1.603 -2.665,-4.008 -4.788,-4.008 -0.607,0 -0.975,0.206 -0.975,0.498 0,0.152 1.539,0.962 1.708,0.962 0.675,0 1.282,1.126 1.325,1.595 0,0.09 -0.04,0.207 -0.217,0.207 -0.415,0 -3.777,-2.669 -3.777,-5.199 0,-0.867 -0.05,-1.501 1.183,-1.501 1.511,0 5.107,2.398 6.492,2.398 0.38,0 0.6,0.02 0.94,0.153 0.48,0.176 1.54,3.589 2.62,6.108 0.2,0.467 2.17,0.909 2.38,0.909 0.84,0 0.34,-2.231 2.34,-2.339 0.16,0 0.28,0.04 0.47,0.04 0.13,0 0.35,0.109 0.35,-0.121 0,-0.377 -1.64,-1.188 -2.83,-1.188 -0.72,0 -1.41,0.378 -1.65,0.854 -0.27,0.05 -1.39,-3.986 -1.5,-4.506 -0.18,-0.894 -0.11,-1.668 -0.1,-2.274 0,-0.435 -1.53,-0.91 -2.47,-0.91 -0.5,0 -0.39,0.636 -0.39,1.126 0,0.759 0,1.04 -0.61,1.04 C 8.754,0.43 5.331,-2.039 1.8,-2.039 0.46,-2.036 0,-1.091 0,0" id="path2985" style="fill:#231f20;fill-opacity:1;fill-rule:nonzero;stroke:none"/>
        </g>
      </g>
    </g>
  </g>
</svg>