<?xml version="1.0" encoding="UTF-8" standalone="no"?>
<svg
   viewBox="0 0 512.00001 512"
   version="1.1"
   id="svg136"
   sodipodi:docname="icon-funnel.svg"
   width="512"
   height="512"
   inkscape:version="1.4 (e7c3feb100, 2024-10-09)"
   inkscape:export-filename="icon-funnel.png"
   inkscape:export-xdpi="96"
   inkscape:export-ydpi="96"
   xmlns:inkscape="http://www.inkscape.org/namespaces/inkscape"
   xmlns:sodipodi="http://sodipodi.sourceforge.net/DTD/sodipodi-0.dtd"
   xmlns="http://www.w3.org/2000/svg"
   xmlns:svg="http://www.w3.org/2000/svg">
  <sodipodi:namedview
     id="namedview136"
     pagecolor="#ffffff"
     bordercolor="#000000"
     borderopacity="0.25"
     inkscape:showpageshadow="2"
     inkscape:pageopacity="0.0"
     inkscape:pagecheckerboard="0"
     inkscape:deskcolor="#d1d1d1"
     inkscape:zoom="0.59782691"
     inkscape:cx="510.18112"
     inkscape:cy="445.7812"
     inkscape:window-width="1920"
     inkscape:window-height="1008"
     inkscape:window-x="0"
     inkscape:window-y="0"
     inkscape:window-maximized="1"
     inkscape:current-layer="svg136" />
  <defs
     id="defs1">
    <style
       id="style1">.cls-1{fill:#f4c222;}.cls-1,.cls-2,.cls-3,.cls-4,.cls-5,.cls-6,.cls-7,.cls-8{stroke-width:0px;}.cls-2{fill:#256782;}.cls-3{fill:#b0e55c;}.cls-4{fill:#333;}.cls-5{fill:#7dd6ea;}.cls-6{fill:#fff;}.cls-7{fill:#ef8975;}.cls-8{fill:#fd3db5;}</style>
  </defs>
  <polygon
     class="cls-8"
     points="518.31,639.98 491.14,665.4 491.14,722.29 498.95,714.48 498.88,677.86 536.24,640.62 "
     id="polygon101"
     transform="matrix(4.3545881,0,0,4.3545881,-1890.3972,-2722.0965)"
     style="fill:#e00370;fill-opacity:1" />
  <path
     class="cls-4"
     d="m 213.34784,466.6812 c -1.13219,0 -2.26438,-0.21773 -3.35303,-0.69673 -3.2224,-1.34992 -5.26905,-4.52877 -5.22551,-8.01244 l 0.95801,-68.97668 V 233.75429 L 58.542235,88.2675 c -3.35304,-3.30949 -3.39658,-8.75272 -0.0871,-12.10576 3.30949,-3.35303 8.75273,-3.39658 12.10576,-0.0871 l 149.710745,147.9689 c 1.61119,1.6112 2.52566,3.7885 2.52566,6.09643 v 158.89892 l -0.65319,47.98756 51.55832,-51.55833 v -155.3717 c 0,-2.26438 0.91447,-4.44168 2.48212,-6.05288 L 426.7662,73.15708 H 122.33695 c -4.7465,0 -8.57854,-3.83204 -8.57854,-8.57854 0,-4.7465 3.83204,-8.57854 8.57854,-8.57854 h 325.07 c 3.44013,0 6.57543,2.0902 7.92535,5.26905 1.34992,3.17885 0.60964,6.88025 -1.82893,9.31882 L 290.85951,233.5801 v 155.3717 c 0,2.26439 -0.91446,4.44168 -2.52566,6.05288 l -68.97668,68.97668 c -1.65474,1.65474 -3.83203,2.52566 -6.05287,2.52566 z"
     id="path102" />
  <path
     class="cls-4"
     d="M 386.6169,128.15552 H 172.71954 c -4.74651,0 -8.57854,-3.83203 -8.57854,-8.57853 0,-4.74651 3.83203,-8.57854 8.57854,-8.57854 H 386.6169 c 4.7465,0 8.57854,3.83203 8.57854,8.57854 0,4.7465 -3.83204,8.57853 -8.57854,8.57853 z"
     id="path103" />
</svg>
