<?xml version="1.0" encoding="UTF-8" standalone="no"?>
<!-- Created with Inkscape (http://www.inkscape.org/) -->

<svg
   width="1200"
   height="630"
   viewBox="0 0 1200 630"
   version="1.1"
   id="svg1"
   xml:space="preserve"
   inkscape:version="1.4 (e7c3feb100, 2024-10-09)"
   sodipodi:docname="social_share.svg"
   inkscape:export-batch-path="/home/tobias/Dokumente/epicenter.works/Netzbremse.de/static"
   inkscape:export-batch-name="batch"
   inkscape:export-filename="social_share.png"
   inkscape:export-xdpi="96"
   inkscape:export-ydpi="96"
   xmlns:inkscape="http://www.inkscape.org/namespaces/inkscape"
   xmlns:sodipodi="http://sodipodi.sourceforge.net/DTD/sodipodi-0.dtd"
   xmlns:xlink="http://www.w3.org/1999/xlink"
   xmlns="http://www.w3.org/2000/svg"
   xmlns:svg="http://www.w3.org/2000/svg"><sodipodi:namedview
     id="namedview1"
     pagecolor="#ffffff"
     bordercolor="#000000"
     borderopacity="0.25"
     inkscape:showpageshadow="2"
     inkscape:pageopacity="0.0"
     inkscape:pagecheckerboard="true"
     inkscape:deskcolor="#d1d1d1"
     inkscape:document-units="px"
     inkscape:zoom="0.71179153"
     inkscape:cx="793.77174"
     inkscape:cy="381.43191"
     inkscape:window-width="1920"
     inkscape:window-height="1008"
     inkscape:window-x="0"
     inkscape:window-y="0"
     inkscape:window-maximized="1"
     inkscape:current-layer="layer1"
     inkscape:export-bgcolor="#ffffffff" /><defs
     id="defs1"><rect
       x="434.11587"
       y="380.72946"
       width="668.73513"
       height="199.49661"
       id="rect12" /><linearGradient
       id="swatch6"
       inkscape:swatch="solid"><stop
         style="stop-color:#e00370;stop-opacity:1;"
         offset="0"
         id="stop6" /></linearGradient><rect
       x="400.39814"
       y="386.34908"
       width="884.59073"
       height="188.26019"
       id="rect6" /><rect
       x="382.13436"
       y="251.47813"
       width="689.74279"
       height="225.14625"
       id="rect4" /><rect
       x="351.22643"
       y="216.35548"
       width="734.7657"
       height="297.84002"
       id="rect3" /><style
       id="style1">.cls-1{fill:#f4c222;}.cls-1,.cls-2{stroke-width:0px;}.cls-2{fill:#256782;}</style><rect
       x="382.13436"
       y="251.47813"
       width="689.74279"
       height="225.14625"
       id="rect5" /><linearGradient
       inkscape:collect="always"
       xlink:href="#swatch6"
       id="linearGradient6"
       x1="286.80426"
       y1="458.78128"
       x2="1249.1577"
       y2="458.78128"
       gradientUnits="userSpaceOnUse" /></defs><g
     inkscape:label="Ebene 1"
     inkscape:groupmode="layer"
     id="layer1"><rect
       style="fill:#e00370;fill-opacity:1;stroke:#e00370;stroke-width:0;stroke-dasharray:none;stroke-opacity:1"
       id="rect11"
       width="744.04315"
       height="186.85246"
       x="395.18234"
       y="349.86993" /><g
       id="g1"
       transform="matrix(4.7860748,0,0,4.7860748,-47.07842,75.694968)"><path
         class="cls-1"
         d="m 71.262409,19.093565 h -33.46388 v 8.794673 c 0,13.407614 12.103957,8.253153 12.103957,22.112033 0,14.731328 -12.103957,8.70442 -12.103957,23.716535 v 15.944731 h 33.46388 L 70.981622,71.149604 c 0,0 -3.11875,-8.253154 -8.614167,-11.913422 -5.495417,-3.660269 -8.062619,-6.598512 -6.598511,-11.361875 1.464107,-4.763363 16.335828,-8.614166 15.493465,-28.780742 z"
         id="path1"
         style="fill:#e00370;fill-opacity:1" /><path
         class="cls-2"
         d="M 71.262409,90.844857 H 28.552591 c -1.07301,0 -1.955486,-0.872448 -1.955486,-1.955486 V 75.361419 c 0,-8.243125 4.783419,-15.784281 12.495054,-19.665168 1.062982,-0.531491 1.955486,-1.353798 2.57723,-2.36664 0.621744,-1.002813 0.942644,-2.156048 0.942644,-3.32934 0,-2.426808 -1.34377,-4.612941 -3.519874,-5.695979 C 31.380524,40.423404 26.587077,32.882248 26.587077,24.639123 V 11.111171 c 0,-1.07301 0.872447,-1.9554856 1.955486,-1.9554856 h 42.709818 c 1.07301,0 1.955486,0.8724476 1.955486,1.9554856 v 13.527952 c 0,8.243125 -4.783419,15.784281 -12.495054,19.665169 -1.062982,0.531491 -1.955486,1.353798 -2.57723,2.366639 0,0 0,0 0,0 -0.611716,0.992785 -0.942644,2.14602 -0.942644,3.319312 0,2.426808 1.343769,4.612941 3.519874,5.69598 7.711635,3.880887 12.505082,11.422043 12.505082,19.665168 v 13.527952 c 0,1.07301 -0.872447,1.955486 -1.955486,1.955486 z M 30.498049,86.943913 H 69.306923 V 75.361419 c 0,-6.768989 -3.97114,-12.966375 -10.349033,-16.185406 -3.48979,-1.754923 -5.665895,-5.274798 -5.665895,-9.18577 0,-1.895317 0.521463,-3.750522 1.514248,-5.365051 1.002813,-1.644614 2.436836,-2.958299 4.151647,-3.820719 6.377893,-3.209002 10.349033,-9.416417 10.349033,-16.175378 V 13.046601 H 30.498049 v 11.582494 c 0,6.768989 3.97114,12.966376 10.349033,16.185406 3.48979,1.754924 5.665895,5.274798 5.665895,9.18577 0,1.895317 -0.521463,3.76055 -1.514248,5.365051 -1.002813,1.634586 -2.436836,2.9583 -4.151647,3.820719 -6.377893,3.209003 -10.349033,9.416417 -10.349033,16.175378 z M 56.470913,45.648061 h 0.02006 z"
         id="path2"
         style="fill:#2a2a2a;fill-opacity:1" /><path
         class="cls-2"
         d="M 72.786685,13.056629 H 27.028315 C 23.428215,13.056629 20.5,10.128414 20.5,6.5283146 20.5,2.9282148 23.428215,0 27.028315,0 h 45.75837 c 3.6001,0 6.528315,2.9282148 6.528315,6.5283146 0,3.6000994 -2.928215,6.5283144 -6.528315,6.5283144 z M 27.028315,3.9009437 c -1.444052,0 -2.627371,1.1732916 -2.627371,2.6273709 0,1.4540793 1.173291,2.6273708 2.627371,2.6273708 h 45.75837 c 1.444052,0 2.627371,-1.1732915 2.627371,-2.6273708 0,-1.4540793 -1.173291,-2.6273709 -2.627371,-2.6273709 z"
         id="path3"
         style="fill:#2a2a2a;fill-opacity:1" /><path
         class="cls-2"
         d="m 72.786685,100.00054 h -45.75837 c -3.6001,0 -6.528315,-2.928213 -6.528315,-6.528312 0,-3.6001 2.928215,-6.528315 6.528315,-6.528315 h 45.75837 c 3.6001,0 6.528315,2.928215 6.528315,6.528315 0,3.600099 -2.928215,6.528312 -6.528315,6.528312 z m -45.75837,-9.155683 c -1.444052,0 -2.627371,1.173291 -2.627371,2.627371 0,1.454079 1.173291,2.627371 2.627371,2.627371 h 45.75837 c 1.444052,0 2.627371,-1.173292 2.627371,-2.627371 0,-1.45408 -1.173291,-2.627371 -2.627371,-2.627371 z"
         id="path4"
         style="fill:#2a2a2a;fill-opacity:1" /></g><text
       xml:space="preserve"
       style="font-size:181.417px;font-family:Serif;-inkscape-font-specification:Serif;text-align:start;writing-mode:lr-tb;direction:ltr;text-anchor:start;fill:#ffffff;stroke-width:341.329"
       x="309.07925"
       y="196.6868"
       id="text1"><tspan
         sodipodi:role="line"
         id="tspan1"
         x="309.07925"
         y="196.6868" /></text><text
       xml:space="preserve"
       style="font-size:48px;font-family:Serif;-inkscape-font-specification:Serif;text-align:start;writing-mode:lr-tb;direction:ltr;text-anchor:start;fill:#161616;fill-opacity:1;stroke-width:341.329;stroke-dasharray:none"
       x="348.41663"
       y="137.68076"
       id="text2"><tspan
         sodipodi:role="line"
         id="tspan2"
         x="348.41663"
         y="137.68076"
         style="font-style:normal;font-variant:normal;font-weight:normal;font-stretch:normal;font-size:48px;font-family:'Source Code Pro';-inkscape-font-specification:'Source Code Pro';stroke-width:341.329;stroke-dasharray:none" /></text><text
       xml:space="preserve"
       id="text3"
       style="font-style:normal;font-variant:normal;font-weight:normal;font-stretch:normal;font-size:48px;font-family:'Source Code Pro';-inkscape-font-specification:'Source Code Pro';text-align:start;writing-mode:lr-tb;direction:ltr;white-space:pre;shape-inside:url(#rect3);display:inline;fill:#161616;fill-opacity:1;stroke-width:341.329;stroke-dasharray:none" /><text
       xml:space="preserve"
       id="text4"
       style="font-style:normal;font-variant:normal;font-weight:bold;font-stretch:normal;font-size:51.8648px;font-family:'Source Code Pro';-inkscape-font-specification:'Source Code Pro Bold';text-align:center;writing-mode:lr-tb;direction:ltr;white-space:pre;shape-inside:url(#rect4);display:inline;fill:#161616;fill-opacity:1;stroke-width:341.329;stroke-dasharray:none"
       transform="matrix(1.2339767,0,0,1.2339767,-132.14437,-224.72103)"
       x="286.87219"
       y="0"><tspan
         x="415.81686"
         y="296.86022"
         id="tspan4">Die Telekom drosselt </tspan><tspan
         x="462.49521"
         y="361.69121"
         id="tspan6">das Netz. Tun wir </tspan><tspan
         x="509.17356"
         y="426.5222"
         id="tspan10">etwas dagegen!</tspan></text><text
       xml:space="preserve"
       id="text6"
       style="font-style:normal;font-variant:normal;font-weight:bold;font-stretch:normal;font-size:63.0352px;font-family:'Source Code Pro';-inkscape-font-specification:'Source Code Pro Bold';text-align:center;writing-mode:lr-tb;direction:ltr;white-space:pre;shape-inside:url(#rect6);shape-padding:18.2637;display:inline;fill:#ffffff;fill-opacity:1;stroke:none;stroke-width:0;stroke-dasharray:none;stroke-opacity:1"
       transform="matrix(0.84608873,0,0,0.84608873,57.890572,40.770725)"><tspan
         x="483.3925"
         y="459.76908"
         id="tspan11">Schließe dich jetzt </tspan><tspan
         x="426.66079"
         y="538.56309"
         id="tspan12">unserer Beschwerde an!</tspan></text><text
       xml:space="preserve"
       id="text11"
       style="font-style:normal;font-variant:normal;font-weight:bold;font-stretch:normal;font-size:48px;font-family:'Source Code Pro';-inkscape-font-specification:'Source Code Pro Bold';text-align:center;writing-mode:lr-tb;direction:ltr;white-space:pre;shape-inside:url(#rect12);display:inline;fill:#ffffff;fill-opacity:1;stroke:#e00370;stroke-width:0;stroke-dasharray:none;stroke-opacity:1" /></g></svg>
