<?xml version="1.0" encoding="utf-8"?>
<!-- Generator: Adobe Illustrator 19.0.0, SVG Export Plug-In . SVG Version: 6.00 Build 0)  -->
<svg version="1.1" id="heise_online" xmlns="http://www.w3.org/2000/svg" xmlns:xlink="http://www.w3.org/1999/xlink" x="0px"
	 y="0px" viewBox="0 0 153.5 30.1" style="enable-background:new 0 0 153.5 30.1;" xml:space="preserve">
<style type="text/css">
	.st0{fill:#010202;}
</style>
<g>
	<path class="st0" d="M21.1,16.4l-2,4.4c-0.4,0.9-1.1,2-2.2,2c-0.9,0-1.5-0.6-1.5-1.5c0-0.7,0.3-1.3,0.6-1.9l2.4-5.3
		c0.4-0.9,0.9-1.6,2-1.6c0.9,0,1.5,0.6,1.5,1.5C21.8,14.9,21.4,15.7,21.1,16.4 M17.2,9.7l-4.9,11.1c-0.4,0.9-1,2-2.2,2
		c-0.9,0-1.5-0.6-1.5-1.5c0-0.7,0.3-1.3,0.6-1.9l5.3-12c0.4-0.9,0.9-1.6,2-1.6c0.9,0,1.5,0.6,1.5,1.5C17.9,8.1,17.6,8.9,17.2,9.7
		 M25,20.2l-1.1-0.9c1.3-1.6,2.2-4,2.2-6c0-6.3-4.9-10.4-11-10.4C6.9,2.8,4,9.2,4,16.4c0,6.4,4.7,11.6,11.2,11.6
		c3.4,0,6.4-1,9.2-2.9c0.5-0.4,1-0.8,1.5-1.3l0.6,0.9c-2.6,3.2-7,5.3-11.2,5.3C6.9,30.1,0,24,0,15.4C0,6.6,6.4,0,15.2,0
		c7.3,0,13.3,4.6,13.3,12.2C28.5,15.1,27,18.2,25,20.2"/>
	<path class="st0" d="M36.1,6.1h2.8v6.6h0c0.3-0.5,0.8-1,1.4-1.3c0.5-0.3,1.2-0.5,1.9-0.5c1.9,0,3.9,1.3,3.9,4.8v6.5h-2.8v-6.2
		c0-1.6-0.6-2.8-2.1-2.8c-1.1,0-1.9,0.7-2.2,1.6c-0.1,0.2-0.1,0.5-0.1,0.8v6.6h-2.8V6.1z"/>
	<path class="st0" d="M55.9,15.6c0-1-0.4-2.7-2.3-2.7c-1.7,0-2.5,1.6-2.6,2.7H55.9z M51.1,17.5c0.1,2,1.6,2.9,3.4,2.9
		c1.3,0,2.2-0.2,3.1-0.5l0.4,1.9c-1,0.4-2.3,0.7-3.9,0.7c-3.6,0-5.7-2.2-5.7-5.6c0-3.1,1.9-6,5.4-6c3.6,0,4.8,3,4.8,5.4
		c0,0.5,0,0.9-0.1,1.2H51.1z"/>
	<path class="st0" d="M61.3,11.2h2.8v11.1h-2.8V11.2z M64.3,8.1c0,0.8-0.6,1.5-1.6,1.5c-0.9,0-1.5-0.7-1.5-1.5
		c0-0.9,0.6-1.5,1.6-1.5C63.7,6.6,64.2,7.3,64.3,8.1"/>
	<path class="st0" d="M67.4,19.7c0.6,0.4,1.8,0.8,2.8,0.8c1.2,0,1.8-0.5,1.8-1.2c0-0.8-0.5-1.1-1.8-1.6c-2.2-0.8-3.1-1.9-3-3.2
		c0-2,1.6-3.5,4.2-3.5c1.2,0,2.3,0.3,2.9,0.7l-0.5,2c-0.5-0.3-1.4-0.6-2.3-0.6c-1,0-1.5,0.5-1.5,1.2c0,0.7,0.5,1,1.9,1.5
		c2,0.7,2.9,1.8,3,3.4c0,2-1.6,3.5-4.5,3.5c-1.3,0-2.5-0.3-3.4-0.8L67.4,19.7z"/>
	<path class="st0" d="M84.3,15.6c0-1-0.4-2.7-2.3-2.7c-1.7,0-2.5,1.6-2.6,2.7H84.3z M79.5,17.5c0.1,2,1.6,2.9,3.4,2.9
		c1.3,0,2.2-0.2,3.1-0.5l0.4,1.9c-1,0.4-2.3,0.7-3.9,0.7c-3.6,0-5.7-2.2-5.7-5.6c0-3.1,1.9-6,5.4-6c3.6,0,4.8,3,4.8,5.4
		c0,0.5,0,0.9-0.1,1.2H79.5z"/>
	<path class="st0" d="M96.1,16.8c0,2.1,1,3.8,2.8,3.8c1.6,0,2.7-1.6,2.7-3.8c0-1.7-0.8-3.7-2.7-3.7C96.9,13,96.1,14.9,96.1,16.8
		 M104.5,16.6c0,4.1-2.9,5.9-5.7,5.9c-3.1,0-5.5-2.2-5.5-5.7c0-3.6,2.4-5.9,5.7-5.9C102.3,11,104.5,13.3,104.5,16.6"/>
	<path class="st0" d="M106.8,14.5c0-1.3,0-2.3-0.1-3.3h2.5l0.1,1.7h0.1c0.5-0.9,1.7-1.9,3.5-1.9c1.9,0,3.9,1.3,3.9,4.8v6.6H114V16
		c0-1.6-0.6-2.8-2.1-2.8c-1.1,0-1.9,0.8-2.2,1.6c-0.1,0.3-0.1,0.6-0.1,0.9v6.5h-2.8V14.5z"/>
	<rect x="119.8" y="6.1" class="st0" width="2.8" height="16.1"/>
	<path class="st0" d="M125.6,11.2h2.8v11.1h-2.8V11.2z M128.6,8.1c0,0.8-0.6,1.5-1.6,1.5c-0.9,0-1.5-0.7-1.5-1.5
		c0-0.9,0.6-1.5,1.6-1.5C128,6.6,128.6,7.3,128.6,8.1"/>
	<path class="st0" d="M131.4,14.5c0-1.3,0-2.3-0.1-3.3h2.5l0.1,1.7h0.1c0.5-0.9,1.7-1.9,3.5-1.9c1.9,0,3.9,1.3,3.9,4.8v6.6h-2.8V16
		c0-1.6-0.6-2.8-2.1-2.8c-1.1,0-1.9,0.8-2.2,1.6c-0.1,0.3-0.1,0.6-0.1,0.9v6.5h-2.8V14.5z"/>
	<path class="st0" d="M150.8,15.6c0-1-0.4-2.7-2.3-2.7c-1.7,0-2.5,1.6-2.6,2.7H150.8z M146,17.5c0.1,2,1.6,2.9,3.4,2.9
		c1.3,0,2.2-0.2,3.1-0.5l0.4,1.9c-1,0.4-2.3,0.7-3.9,0.7c-3.6,0-5.7-2.2-5.7-5.6c0-3.1,1.9-6,5.4-6c3.6,0,4.8,3,4.8,5.4
		c0,0.5,0,0.9-0.1,1.2H146z"/>
</g>
</svg>
